<mxfile host="app.diagrams.net" agent="Mozilla/5.0 (Windows NT 10.0; Win64; x64) AppleWebKit/537.36 (KHTML, like Gecko) Chrome/139.0.0.0 Safari/537.36" version="28.1.2">
  <diagram name="Halaman-1" id="W33IIvSQNtLLbJRaI3xW">
    <mxGraphModel dx="969" dy="554" grid="0" gridSize="10" guides="1" tooltips="1" connect="1" arrows="1" fold="1" page="1" pageScale="1" pageWidth="850" pageHeight="1100" math="0" shadow="0">
      <root>
        <mxCell id="0" />
        <mxCell id="1" parent="0" />
        <mxCell id="cxxq5ZzfnAStYUOtDj8U-3" value="" style="rounded=0;whiteSpace=wrap;html=1;fillColor=#dae8fc;strokeColor=#6c8ebf;" parent="1" vertex="1">
          <mxGeometry x="180" y="150" width="380" height="530" as="geometry" />
        </mxCell>
        <mxCell id="cxxq5ZzfnAStYUOtDj8U-30" style="edgeStyle=orthogonalEdgeStyle;rounded=0;orthogonalLoop=1;jettySize=auto;html=1;exitX=0.5;exitY=0;exitDx=0;exitDy=0;exitPerimeter=0;entryX=0.5;entryY=0;entryDx=0;entryDy=0;endArrow=none;endFill=0;" parent="1" source="cxxq5ZzfnAStYUOtDj8U-4" target="cxxq5ZzfnAStYUOtDj8U-21" edge="1">
          <mxGeometry relative="1" as="geometry">
            <Array as="points">
              <mxPoint x="145" y="520" />
              <mxPoint x="170" y="520" />
              <mxPoint x="170" y="400" />
              <mxPoint x="370" y="400" />
            </Array>
          </mxGeometry>
        </mxCell>
        <mxCell id="cxxq5ZzfnAStYUOtDj8U-32" style="edgeStyle=orthogonalEdgeStyle;rounded=0;orthogonalLoop=1;jettySize=auto;html=1;exitX=0.5;exitY=0.5;exitDx=0;exitDy=0;exitPerimeter=0;entryX=0;entryY=0.5;entryDx=0;entryDy=0;endArrow=none;endFill=0;" parent="1" source="cxxq5ZzfnAStYUOtDj8U-4" target="cxxq5ZzfnAStYUOtDj8U-14" edge="1">
          <mxGeometry relative="1" as="geometry" />
        </mxCell>
        <mxCell id="cxxq5ZzfnAStYUOtDj8U-33" style="edgeStyle=orthogonalEdgeStyle;rounded=0;orthogonalLoop=1;jettySize=auto;html=1;exitX=0.5;exitY=0.5;exitDx=0;exitDy=0;exitPerimeter=0;endArrow=none;endFill=0;" parent="1" source="cxxq5ZzfnAStYUOtDj8U-4" target="cxxq5ZzfnAStYUOtDj8U-15" edge="1">
          <mxGeometry relative="1" as="geometry" />
        </mxCell>
        <mxCell id="cxxq5ZzfnAStYUOtDj8U-34" style="edgeStyle=orthogonalEdgeStyle;rounded=0;orthogonalLoop=1;jettySize=auto;html=1;exitX=0.5;exitY=0.5;exitDx=0;exitDy=0;exitPerimeter=0;entryX=0;entryY=0.5;entryDx=0;entryDy=0;endArrow=none;endFill=0;" parent="1" source="cxxq5ZzfnAStYUOtDj8U-4" target="cxxq5ZzfnAStYUOtDj8U-16" edge="1">
          <mxGeometry relative="1" as="geometry" />
        </mxCell>
        <mxCell id="cxxq5ZzfnAStYUOtDj8U-35" style="edgeStyle=orthogonalEdgeStyle;rounded=0;orthogonalLoop=1;jettySize=auto;html=1;exitX=0.5;exitY=0.5;exitDx=0;exitDy=0;exitPerimeter=0;entryX=0;entryY=0.5;entryDx=0;entryDy=0;endArrow=none;endFill=0;" parent="1" source="cxxq5ZzfnAStYUOtDj8U-4" target="cxxq5ZzfnAStYUOtDj8U-17" edge="1">
          <mxGeometry relative="1" as="geometry">
            <Array as="points">
              <mxPoint x="180" y="520" />
              <mxPoint x="180" y="630" />
            </Array>
          </mxGeometry>
        </mxCell>
        <mxCell id="cxxq5ZzfnAStYUOtDj8U-4" value="Resepsionis" style="shape=umlActor;html=1;verticalLabelPosition=bottom;verticalAlign=top;align=center;" parent="1" vertex="1">
          <mxGeometry x="130" y="490" width="30" height="60" as="geometry" />
        </mxCell>
        <mxCell id="cxxq5ZzfnAStYUOtDj8U-26" style="edgeStyle=orthogonalEdgeStyle;rounded=0;orthogonalLoop=1;jettySize=auto;html=1;exitX=0.5;exitY=0.5;exitDx=0;exitDy=0;exitPerimeter=0;endArrow=none;endFill=0;" parent="1" source="cxxq5ZzfnAStYUOtDj8U-5" target="cxxq5ZzfnAStYUOtDj8U-20" edge="1">
          <mxGeometry relative="1" as="geometry" />
        </mxCell>
        <mxCell id="cxxq5ZzfnAStYUOtDj8U-27" style="edgeStyle=orthogonalEdgeStyle;rounded=0;orthogonalLoop=1;jettySize=auto;html=1;exitX=0.5;exitY=0.5;exitDx=0;exitDy=0;exitPerimeter=0;endArrow=none;endFill=0;" parent="1" source="cxxq5ZzfnAStYUOtDj8U-5" target="cxxq5ZzfnAStYUOtDj8U-19" edge="1">
          <mxGeometry relative="1" as="geometry" />
        </mxCell>
        <mxCell id="cxxq5ZzfnAStYUOtDj8U-28" style="edgeStyle=orthogonalEdgeStyle;rounded=0;orthogonalLoop=1;jettySize=auto;html=1;exitX=0.5;exitY=0.5;exitDx=0;exitDy=0;exitPerimeter=0;entryX=0;entryY=0;entryDx=0;entryDy=0;endArrow=none;endFill=0;" parent="1" source="cxxq5ZzfnAStYUOtDj8U-5" target="cxxq5ZzfnAStYUOtDj8U-18" edge="1">
          <mxGeometry relative="1" as="geometry">
            <Array as="points">
              <mxPoint x="180" y="280" />
              <mxPoint x="180" y="319" />
            </Array>
          </mxGeometry>
        </mxCell>
        <mxCell id="cxxq5ZzfnAStYUOtDj8U-29" style="edgeStyle=orthogonalEdgeStyle;rounded=0;orthogonalLoop=1;jettySize=auto;html=1;exitX=0.5;exitY=0.5;exitDx=0;exitDy=0;exitPerimeter=0;entryX=0;entryY=0.5;entryDx=0;entryDy=0;endArrow=none;endFill=0;" parent="1" source="cxxq5ZzfnAStYUOtDj8U-5" target="cxxq5ZzfnAStYUOtDj8U-21" edge="1">
          <mxGeometry relative="1" as="geometry">
            <Array as="points">
              <mxPoint x="170" y="280" />
              <mxPoint x="170" y="190" />
            </Array>
          </mxGeometry>
        </mxCell>
        <mxCell id="cxxq5ZzfnAStYUOtDj8U-5" value="Tamu" style="shape=umlActor;html=1;verticalLabelPosition=bottom;verticalAlign=top;align=center;" parent="1" vertex="1">
          <mxGeometry x="130" y="250" width="30" height="60" as="geometry" />
        </mxCell>
        <mxCell id="cxxq5ZzfnAStYUOtDj8U-39" style="edgeStyle=orthogonalEdgeStyle;rounded=0;orthogonalLoop=1;jettySize=auto;html=1;exitX=0.5;exitY=0.5;exitDx=0;exitDy=0;exitPerimeter=0;entryX=1;entryY=0.5;entryDx=0;entryDy=0;endArrow=none;endFill=0;" parent="1" source="cxxq5ZzfnAStYUOtDj8U-6" target="cxxq5ZzfnAStYUOtDj8U-12" edge="1">
          <mxGeometry relative="1" as="geometry" />
        </mxCell>
        <mxCell id="cxxq5ZzfnAStYUOtDj8U-40" style="edgeStyle=orthogonalEdgeStyle;rounded=0;orthogonalLoop=1;jettySize=auto;html=1;exitX=0.5;exitY=0.5;exitDx=0;exitDy=0;exitPerimeter=0;entryX=1;entryY=0.5;entryDx=0;entryDy=0;endArrow=none;endFill=0;" parent="1" source="cxxq5ZzfnAStYUOtDj8U-6" target="cxxq5ZzfnAStYUOtDj8U-13" edge="1">
          <mxGeometry relative="1" as="geometry" />
        </mxCell>
        <mxCell id="cxxq5ZzfnAStYUOtDj8U-41" style="edgeStyle=orthogonalEdgeStyle;rounded=0;orthogonalLoop=1;jettySize=auto;html=1;exitX=0.5;exitY=0.5;exitDx=0;exitDy=0;exitPerimeter=0;entryX=1;entryY=0.5;entryDx=0;entryDy=0;endArrow=none;endFill=0;" parent="1" source="cxxq5ZzfnAStYUOtDj8U-6" target="cxxq5ZzfnAStYUOtDj8U-21" edge="1">
          <mxGeometry relative="1" as="geometry">
            <Array as="points">
              <mxPoint x="550" y="530" />
              <mxPoint x="550" y="190" />
            </Array>
          </mxGeometry>
        </mxCell>
        <mxCell id="cxxq5ZzfnAStYUOtDj8U-6" value="Admin" style="shape=umlActor;html=1;verticalLabelPosition=bottom;verticalAlign=top;align=center;" parent="1" vertex="1">
          <mxGeometry x="570" y="500" width="30" height="60" as="geometry" />
        </mxCell>
        <mxCell id="cxxq5ZzfnAStYUOtDj8U-12" value="Laporan kunjungan" style="ellipse;whiteSpace=wrap;html=1;" parent="1" vertex="1">
          <mxGeometry x="405" y="570" width="120" height="60" as="geometry" />
        </mxCell>
        <mxCell id="cxxq5ZzfnAStYUOtDj8U-13" value="Kelola user" style="ellipse;whiteSpace=wrap;html=1;" parent="1" vertex="1">
          <mxGeometry x="405" y="445" width="120" height="55" as="geometry" />
        </mxCell>
        <mxCell id="cxxq5ZzfnAStYUOtDj8U-14" value="Laporan Harian" style="ellipse;whiteSpace=wrap;html=1;" parent="1" vertex="1">
          <mxGeometry x="200" y="420" width="100" height="50" as="geometry" />
        </mxCell>
        <mxCell id="cxxq5ZzfnAStYUOtDj8U-15" value="Kelola Data Kunjungan" style="ellipse;whiteSpace=wrap;html=1;" parent="1" vertex="1">
          <mxGeometry x="250" y="470" width="110" height="50" as="geometry" />
        </mxCell>
        <mxCell id="cxxq5ZzfnAStYUOtDj8U-16" value="Setujui / Tolak Kunjungan" style="ellipse;whiteSpace=wrap;html=1;" parent="1" vertex="1">
          <mxGeometry x="250" y="550" width="100" height="50" as="geometry" />
        </mxCell>
        <mxCell id="cxxq5ZzfnAStYUOtDj8U-17" value="Lihat Pengajuan Kunjungan" style="ellipse;whiteSpace=wrap;html=1;" parent="1" vertex="1">
          <mxGeometry x="195" y="600" width="110" height="60" as="geometry" />
        </mxCell>
        <mxCell id="cxxq5ZzfnAStYUOtDj8U-18" value="Check-in/ Check-out via QR" style="ellipse;whiteSpace=wrap;html=1;" parent="1" vertex="1">
          <mxGeometry x="190" y="310" width="120" height="60" as="geometry" />
        </mxCell>
        <mxCell id="cxxq5ZzfnAStYUOtDj8U-19" value="Lihat Status Kunjungan" style="ellipse;whiteSpace=wrap;html=1;" parent="1" vertex="1">
          <mxGeometry x="220" y="255" width="100" height="50" as="geometry" />
        </mxCell>
        <mxCell id="cxxq5ZzfnAStYUOtDj8U-45" style="edgeStyle=orthogonalEdgeStyle;rounded=0;orthogonalLoop=1;jettySize=auto;html=1;exitX=1;exitY=0.5;exitDx=0;exitDy=0;entryX=0;entryY=0.5;entryDx=0;entryDy=0;dashed=1;endArrow=open;endFill=0;" parent="1" source="cxxq5ZzfnAStYUOtDj8U-20" target="cxxq5ZzfnAStYUOtDj8U-44" edge="1">
          <mxGeometry relative="1" as="geometry" />
        </mxCell>
        <mxCell id="cxxq5ZzfnAStYUOtDj8U-47" value="include" style="edgeLabel;html=1;align=center;verticalAlign=middle;resizable=0;points=[];" parent="cxxq5ZzfnAStYUOtDj8U-45" vertex="1" connectable="0">
          <mxGeometry x="-0.4145" y="1" relative="1" as="geometry">
            <mxPoint as="offset" />
          </mxGeometry>
        </mxCell>
        <mxCell id="cxxq5ZzfnAStYUOtDj8U-20" value="Ajukan Kunjungan" style="ellipse;whiteSpace=wrap;html=1;" parent="1" vertex="1">
          <mxGeometry x="210" y="200" width="100" height="50" as="geometry" />
        </mxCell>
        <mxCell id="cxxq5ZzfnAStYUOtDj8U-21" value="login" style="ellipse;whiteSpace=wrap;html=1;" parent="1" vertex="1">
          <mxGeometry x="310" y="170" width="120" height="40" as="geometry" />
        </mxCell>
        <mxCell id="cxxq5ZzfnAStYUOtDj8U-42" value="Kelola Profil" style="ellipse;whiteSpace=wrap;html=1;" parent="1" vertex="1">
          <mxGeometry x="350" y="510" width="100" height="40" as="geometry" />
        </mxCell>
        <mxCell id="cxxq5ZzfnAStYUOtDj8U-43" style="edgeStyle=orthogonalEdgeStyle;rounded=0;orthogonalLoop=1;jettySize=auto;html=1;exitX=0.5;exitY=0.5;exitDx=0;exitDy=0;exitPerimeter=0;entryX=0.009;entryY=0.605;entryDx=0;entryDy=0;entryPerimeter=0;endArrow=none;endFill=0;" parent="1" source="cxxq5ZzfnAStYUOtDj8U-4" target="cxxq5ZzfnAStYUOtDj8U-42" edge="1">
          <mxGeometry relative="1" as="geometry">
            <Array as="points">
              <mxPoint x="160" y="520" />
              <mxPoint x="160" y="534" />
              <mxPoint x="351" y="534" />
            </Array>
          </mxGeometry>
        </mxCell>
        <mxCell id="cxxq5ZzfnAStYUOtDj8U-44" value="Isi Formulir Data Diri" style="ellipse;whiteSpace=wrap;html=1;" parent="1" vertex="1">
          <mxGeometry x="395" y="220" width="130" height="35" as="geometry" />
        </mxCell>
        <mxCell id="cxxq5ZzfnAStYUOtDj8U-46" style="edgeStyle=orthogonalEdgeStyle;rounded=0;orthogonalLoop=1;jettySize=auto;html=1;exitX=0.5;exitY=1;exitDx=0;exitDy=0;entryX=0.467;entryY=0.024;entryDx=0;entryDy=0;entryPerimeter=0;endArrow=open;endFill=0;dashed=1;" parent="1" source="cxxq5ZzfnAStYUOtDj8U-15" target="cxxq5ZzfnAStYUOtDj8U-16" edge="1">
          <mxGeometry relative="1" as="geometry" />
        </mxCell>
        <mxCell id="cxxq5ZzfnAStYUOtDj8U-48" value="include" style="edgeLabel;html=1;align=center;verticalAlign=middle;resizable=0;points=[];" parent="cxxq5ZzfnAStYUOtDj8U-46" vertex="1" connectable="0">
          <mxGeometry x="0.1856" y="-1" relative="1" as="geometry">
            <mxPoint as="offset" />
          </mxGeometry>
        </mxCell>
      </root>
    </mxGraphModel>
  </diagram>
</mxfile>
